<svg xmlns="http://www.w3.org/2000/svg" xmlns:xlink="http://www.w3.org/1999/xlink" width="1600" zoomAndPan="magnify" viewBox="0 0 1440 809.999993" height="1080" preserveAspectRatio="xMidYMid meet" version="1.0"><defs><clipPath id="17e7f7d2aa"><path d="M 0.015625 0 L 154 0 L 154 234 L 0.015625 234 Z M 0.015625 0 " clip-rule="nonzero"/></clipPath><clipPath id="d97146d599"><path d="M 0 549.050781 L 290.714844 549.050781 L 290.714844 810 L 0 810 Z M 0 549.050781 " clip-rule="nonzero"/></clipPath><clipPath id="4aea060979"><path d="M 1351 517.0625 L 1440 517.0625 L 1440 810 L 1351 810 Z M 1351 517.0625 " clip-rule="nonzero"/></clipPath></defs><rect x="-144" width="1728" fill="#ffffff" y="-80.999999" height="971.999992" fill-opacity="1"/><rect x="-144" width="1728" fill="#ffffff" y="-80.999999" height="971.999992" fill-opacity="1"/><path fill="#c0c6c5" d="M 1498.398438 -48.070312 L 1498.398438 163.078125 C 1491.796875 177.355469 1482.214844 190.542969 1464.359375 203.089844 C 1424.265625 231.25 1361.136719 243.023438 1328.824219 216.445312 C 1293.429688 187.339844 1325.28125 137.078125 1290.640625 101.914062 C 1246.074219 56.671875 1160.429688 106.492188 1126.480469 61.828125 C 1105.238281 33.878906 1121.179688 -8.792969 1122.65625 -12.617188 C 1128.207031 -26.867188 1137.113281 -38.472656 1148.335938 -48.070312 Z M 1498.398438 -48.070312 " fill-opacity="1" fill-rule="nonzero"/><path fill="#fff083" d="M 1498.398438 -81 L 1498.398438 130.144531 C 1491.796875 144.425781 1482.214844 157.613281 1464.359375 170.160156 C 1424.265625 198.320312 1361.136719 210.09375 1328.824219 183.515625 C 1293.429688 154.410156 1325.28125 104.148438 1290.640625 68.984375 C 1246.074219 23.742188 1160.429688 73.5625 1126.480469 28.898438 C 1105.238281 0.949219 1121.179688 -41.726562 1122.65625 -45.546875 C 1128.207031 -59.796875 1137.113281 -71.402344 1148.335938 -81 Z M 1498.398438 -81 " fill-opacity="1" fill-rule="nonzero"/><path fill="#ffffff" d="M 1495.867188 134.585938 C 1495.539062 134.585938 1495.21875 134.46875 1494.960938 134.226562 C 1494.421875 133.71875 1494.390625 132.878906 1494.894531 132.339844 C 1495.796875 131.375 1496.679688 130.378906 1497.523438 129.390625 C 1498.003906 128.828125 1498.847656 128.765625 1499.402344 129.246094 C 1499.964844 129.730469 1500.027344 130.570312 1499.546875 131.125 C 1498.679688 132.144531 1497.769531 133.15625 1496.839844 134.152344 C 1496.582031 134.441406 1496.222656 134.585938 1495.867188 134.585938 Z M 1475.21875 152.023438 L 1475.789062 151.648438 C 1475.886719 151.582031 1475.972656 151.511719 1476.054688 151.421875 C 1476.15625 151.382812 1476.261719 151.332031 1476.367188 151.269531 C 1477.339844 150.617188 1478.300781 149.96875 1479.25 149.300781 C 1480.550781 148.386719 1481.835938 147.445312 1483.066406 146.515625 C 1483.652344 146.066406 1483.773438 145.230469 1483.324219 144.644531 C 1482.871094 144.058594 1482.039062 143.945312 1481.449219 144.386719 C 1480.246094 145.300781 1478.984375 146.21875 1477.707031 147.117188 C 1476.777344 147.769531 1475.835938 148.417969 1474.882812 149.054688 C 1474.785156 149.117188 1474.695312 149.1875 1474.625 149.269531 C 1474.519531 149.300781 1474.414062 149.359375 1474.320312 149.421875 L 1473.757812 149.792969 C 1473.136719 150.191406 1472.960938 151.019531 1473.363281 151.640625 C 1473.621094 152.03125 1474.046875 152.25 1474.488281 152.25 C 1474.746094 152.242188 1474.992188 152.167969 1475.21875 152.023438 Z M 1489.441406 141.316406 L 1489.957031 140.867188 C 1490.054688 140.789062 1490.125 140.691406 1490.1875 140.59375 C 1490.292969 140.539062 1490.398438 140.476562 1490.496094 140.386719 L 1490.976562 139.953125 C 1491.523438 139.453125 1491.5625 138.613281 1491.066406 138.066406 C 1490.566406 137.519531 1489.722656 137.480469 1489.175781 137.976562 L 1488.679688 138.425781 C 1488.589844 138.507812 1488.519531 138.585938 1488.460938 138.675781 C 1488.367188 138.722656 1488.269531 138.789062 1488.179688 138.867188 L 1487.675781 139.308594 C 1487.121094 139.800781 1487.066406 140.644531 1487.554688 141.199219 C 1487.820312 141.496094 1488.191406 141.65625 1488.558594 141.65625 C 1488.878906 141.65625 1489.195312 141.542969 1489.441406 141.316406 Z M 1399.542969 177.542969 C 1400.28125 177.492188 1400.835938 176.859375 1400.789062 176.121094 C 1400.738281 175.382812 1400.105469 174.828125 1399.367188 174.875 C 1396.757812 175.042969 1394.144531 175.125 1391.617188 175.125 L 1391.328125 175.125 C 1391.328125 175.125 1391.320312 175.125 1391.320312 175.125 C 1390.589844 175.125 1389.984375 175.71875 1389.984375 176.449219 C 1389.976562 177.1875 1390.570312 177.789062 1391.3125 177.789062 L 1391.617188 177.789062 C 1394.203125 177.796875 1396.867188 177.710938 1399.542969 177.542969 Z M 1384.53125 176.25 C 1384.589844 175.507812 1384.042969 174.867188 1383.304688 174.8125 L 1382.628906 174.753906 C 1382.515625 174.746094 1382.402344 174.753906 1382.292969 174.769531 C 1382.1875 174.730469 1382.074219 174.707031 1381.960938 174.699219 L 1381.296875 174.632812 C 1380.554688 174.5625 1379.90625 175.101562 1379.839844 175.839844 C 1379.769531 176.570312 1380.308594 177.226562 1381.046875 177.292969 L 1381.730469 177.355469 C 1381.859375 177.363281 1381.976562 177.363281 1382.097656 177.339844 C 1382.210938 177.378906 1382.339844 177.414062 1382.460938 177.421875 L 1383.09375 177.46875 C 1383.125 177.46875 1383.167969 177.46875 1383.199219 177.46875 C 1383.890625 177.476562 1384.476562 176.945312 1384.53125 176.25 Z M 1407.710938 176.769531 L 1408.394531 176.683594 C 1408.515625 176.664062 1408.621094 176.632812 1408.722656 176.59375 C 1408.835938 176.609375 1408.949219 176.609375 1409.070312 176.59375 L 1409.75 176.496094 C 1410.484375 176.394531 1410.988281 175.71875 1410.890625 174.988281 C 1410.789062 174.257812 1410.113281 173.742188 1409.382812 173.847656 L 1408.714844 173.933594 C 1408.601562 173.953125 1408.492188 173.984375 1408.386719 174.023438 C 1408.273438 174.007812 1408.160156 174.007812 1408.050781 174.023438 L 1407.390625 174.105469 C 1406.660156 174.191406 1406.136719 174.859375 1406.226562 175.589844 C 1406.304688 176.265625 1406.882812 176.761719 1407.550781 176.761719 C 1407.605469 176.777344 1407.664062 176.769531 1407.710938 176.769531 Z M 1374.429688 175.082031 C 1374.566406 174.359375 1374.082031 173.660156 1373.359375 173.527344 C 1370.683594 173.027344 1368.066406 172.410156 1365.578125 171.6875 C 1364.871094 171.476562 1364.125 171.886719 1363.921875 172.59375 C 1363.714844 173.300781 1364.125 174.046875 1364.832031 174.25 C 1367.410156 174.996094 1370.113281 175.636719 1372.871094 176.152344 C 1372.949219 176.167969 1373.03125 176.175781 1373.117188 176.175781 C 1373.746094 176.175781 1374.308594 175.726562 1374.429688 175.082031 Z M 1417.855469 175.140625 C 1420.515625 174.617188 1423.203125 174.015625 1425.871094 173.347656 C 1426.585938 173.171875 1427.019531 172.441406 1426.84375 171.726562 C 1426.667969 171.011719 1425.9375 170.578125 1425.222656 170.753906 C 1422.601562 171.40625 1419.953125 172 1417.339844 172.511719 C 1416.617188 172.65625 1416.144531 173.355469 1416.289062 174.078125 C 1416.417969 174.714844 1416.972656 175.15625 1417.597656 175.15625 C 1417.6875 175.164062 1417.765625 175.15625 1417.855469 175.140625 Z M 1358.757812 170.777344 C 1359.046875 170.097656 1358.726562 169.316406 1358.042969 169.027344 C 1357.835938 168.9375 1357.632812 168.851562 1357.433594 168.769531 C 1357.328125 168.722656 1357.214844 168.691406 1357.113281 168.675781 C 1357.023438 168.601562 1356.925781 168.546875 1356.824219 168.496094 C 1356.621094 168.410156 1356.421875 168.320312 1356.21875 168.226562 C 1355.546875 167.917969 1354.757812 168.207031 1354.453125 168.882812 C 1354.148438 169.550781 1354.4375 170.34375 1355.113281 170.648438 C 1355.320312 170.746094 1355.539062 170.84375 1355.746094 170.9375 C 1355.859375 170.988281 1355.972656 171.019531 1356.082031 171.035156 C 1356.171875 171.109375 1356.277344 171.164062 1356.378906 171.210938 C 1356.589844 171.300781 1356.804688 171.398438 1357.023438 171.484375 C 1357.191406 171.558594 1357.367188 171.589844 1357.539062 171.589844 C 1358.050781 171.597656 1358.550781 171.292969 1358.757812 170.777344 Z M 1433.78125 171.164062 L 1434.433594 170.964844 C 1434.546875 170.929688 1434.648438 170.882812 1434.746094 170.820312 C 1434.859375 170.8125 1434.972656 170.792969 1435.082031 170.761719 L 1435.734375 170.554688 C 1436.441406 170.328125 1436.828125 169.582031 1436.601562 168.875 C 1436.375 168.167969 1435.621094 167.78125 1434.921875 168.007812 L 1434.28125 168.207031 C 1434.167969 168.242188 1434.0625 168.289062 1433.976562 168.351562 C 1433.863281 168.359375 1433.75 168.378906 1433.644531 168.410156 L 1432.996094 168.609375 C 1432.289062 168.828125 1431.894531 169.574219 1432.105469 170.28125 C 1432.28125 170.859375 1432.8125 171.226562 1433.382812 171.226562 C 1433.515625 171.21875 1433.644531 171.203125 1433.78125 171.164062 Z M 1443.492188 167.878906 C 1446.046875 166.929688 1448.601562 165.910156 1451.105469 164.835938 C 1451.78125 164.546875 1452.101562 163.757812 1451.8125 163.085938 C 1451.523438 162.402344 1450.738281 162.089844 1450.0625 162.378906 C 1447.597656 163.429688 1445.074219 164.441406 1442.570312 165.375 C 1441.878906 165.628906 1441.523438 166.402344 1441.78125 167.09375 C 1441.984375 167.628906 1442.488281 167.960938 1443.035156 167.960938 C 1443.179688 167.96875 1443.339844 167.945312 1443.492188 167.878906 Z M 1349.632812 166.296875 C 1350.027344 165.671875 1349.84375 164.851562 1349.214844 164.457031 C 1347.3125 163.253906 1345.488281 161.9375 1343.785156 160.539062 C 1343.464844 160.273438 1343.152344 160.007812 1342.839844 159.742188 C 1342.277344 159.261719 1341.433594 159.324219 1340.953125 159.878906 C 1340.46875 160.441406 1340.535156 161.285156 1341.089844 161.765625 C 1341.410156 162.046875 1341.738281 162.328125 1342.078125 162.601562 C 1343.859375 164.070312 1345.777344 165.453125 1347.777344 166.714844 C 1348.003906 166.851562 1348.246094 166.921875 1348.492188 166.921875 C 1348.953125 166.914062 1349.386719 166.699219 1349.632812 166.296875 Z M 1458.558594 161.429688 L 1459.179688 161.125 C 1459.285156 161.078125 1459.378906 161.011719 1459.46875 160.933594 C 1459.582031 160.90625 1459.683594 160.867188 1459.789062 160.820312 L 1460.398438 160.515625 C 1461.058594 160.183594 1461.324219 159.382812 1460.992188 158.722656 C 1460.664062 158.0625 1459.863281 157.800781 1459.203125 158.128906 L 1458.601562 158.433594 C 1458.496094 158.480469 1458.398438 158.546875 1458.320312 158.617188 C 1458.207031 158.644531 1458.101562 158.675781 1458 158.730469 L 1457.394531 159.027344 C 1456.730469 159.347656 1456.457031 160.152344 1456.777344 160.8125 C 1457.011719 161.285156 1457.484375 161.566406 1457.980469 161.566406 C 1458.175781 161.566406 1458.375 161.527344 1458.558594 161.429688 Z M 1467.628906 156.652344 C 1470.015625 155.292969 1472.375 153.863281 1474.640625 152.402344 C 1475.257812 152 1475.433594 151.171875 1475.042969 150.554688 C 1474.640625 149.9375 1473.8125 149.75 1473.195312 150.152344 C 1470.96875 151.589844 1468.648438 152.996094 1466.304688 154.328125 C 1465.660156 154.691406 1465.4375 155.511719 1465.804688 156.152344 C 1466.054688 156.585938 1466.503906 156.828125 1466.96875 156.828125 C 1467.1875 156.828125 1467.417969 156.769531 1467.628906 156.652344 Z M 1337.152344 156 C 1337.722656 155.535156 1337.804688 154.691406 1337.328125 154.121094 C 1337.191406 153.953125 1337.046875 153.785156 1336.910156 153.605469 C 1336.839844 153.519531 1336.757812 153.4375 1336.671875 153.375 C 1336.628906 153.277344 1336.574219 153.179688 1336.503906 153.09375 C 1336.367188 152.917969 1336.238281 152.746094 1336.101562 152.570312 C 1335.660156 151.984375 1334.824219 151.863281 1334.230469 152.304688 C 1333.644531 152.746094 1333.523438 153.589844 1333.964844 154.175781 C 1334.101562 154.363281 1334.246094 154.546875 1334.390625 154.730469 C 1334.460938 154.828125 1334.550781 154.90625 1334.640625 154.980469 C 1334.6875 155.085938 1334.742188 155.1875 1334.824219 155.277344 C 1334.96875 155.460938 1335.113281 155.640625 1335.265625 155.816406 C 1335.53125 156.136719 1335.90625 156.296875 1336.292969 156.296875 C 1336.597656 156.304688 1336.902344 156.210938 1337.152344 156 Z M 1331.363281 147.6875 C 1332.019531 147.359375 1332.285156 146.546875 1331.949219 145.894531 C 1330.800781 143.632812 1329.796875 141.164062 1328.96875 138.578125 C 1328.742188 137.878906 1327.996094 137.488281 1327.289062 137.71875 C 1326.589844 137.945312 1326.199219 138.699219 1326.429688 139.398438 C 1327.304688 142.121094 1328.359375 144.707031 1329.570312 147.101562 C 1329.804688 147.566406 1330.277344 147.832031 1330.769531 147.832031 C 1330.96875 147.832031 1331.167969 147.792969 1331.363281 147.6875 Z M 1325.972656 132.425781 C 1326.695312 132.289062 1327.167969 131.59375 1327.03125 130.859375 L 1326.914062 130.210938 C 1326.886719 130.097656 1326.855469 129.992188 1326.808594 129.890625 C 1326.816406 129.777344 1326.808594 129.664062 1326.792969 129.550781 L 1326.679688 128.894531 C 1326.558594 128.164062 1325.882812 127.671875 1325.144531 127.792969 C 1324.414062 127.914062 1323.925781 128.597656 1324.046875 129.328125 L 1324.15625 130.007812 C 1324.179688 130.128906 1324.214844 130.234375 1324.261719 130.339844 C 1324.253906 130.453125 1324.261719 130.570312 1324.277344 130.683594 L 1324.40625 131.367188 C 1324.527344 132.007812 1325.089844 132.453125 1325.714844 132.453125 C 1325.804688 132.453125 1325.890625 132.441406 1325.972656 132.425781 Z M 1324.488281 122.371094 C 1325.226562 122.308594 1325.765625 121.65625 1325.699219 120.925781 C 1325.492188 118.546875 1325.320312 115.984375 1325.167969 112.863281 C 1325.136719 112.121094 1324.488281 111.578125 1323.773438 111.59375 C 1323.03125 111.625 1322.472656 112.25 1322.503906 112.992188 C 1322.65625 116.15625 1322.824219 118.75 1323.042969 121.167969 C 1323.105469 121.859375 1323.683594 122.386719 1324.367188 122.386719 C 1324.40625 122.371094 1324.445312 122.371094 1324.488281 122.371094 Z M 1323.554688 106.125 C 1324.292969 106.097656 1324.863281 105.472656 1324.839844 104.742188 L 1324.816406 104.058594 C 1324.808594 103.9375 1324.792969 103.828125 1324.761719 103.722656 C 1324.785156 103.609375 1324.792969 103.496094 1324.792969 103.382812 L 1324.769531 102.710938 C 1324.742188 101.972656 1324.125 101.417969 1323.386719 101.425781 C 1322.648438 101.449219 1322.078125 102.074219 1322.101562 102.804688 L 1322.125 103.488281 C 1322.132812 103.609375 1322.148438 103.722656 1322.183594 103.828125 C 1322.15625 103.9375 1322.148438 104.050781 1322.148438 104.164062 L 1322.171875 104.839844 C 1322.199219 105.5625 1322.792969 106.125 1323.507812 106.125 C 1323.515625 106.125 1323.53125 106.125 1323.554688 106.125 Z M 1323.097656 95.964844 C 1323.835938 95.914062 1324.390625 95.28125 1324.34375 94.542969 C 1324.140625 91.554688 1323.902344 88.878906 1323.601562 86.363281 C 1323.515625 85.632812 1322.847656 85.113281 1322.117188 85.199219 C 1321.386719 85.289062 1320.863281 85.957031 1320.953125 86.6875 C 1321.25 89.144531 1321.484375 91.769531 1321.683594 94.71875 C 1321.730469 95.425781 1322.316406 95.964844 1323.015625 95.964844 C 1323.03125 95.964844 1323.066406 95.964844 1323.097656 95.964844 Z M 1321.257812 79.8125 C 1321.980469 79.667969 1322.445312 78.960938 1322.300781 78.238281 L 1322.164062 77.5625 C 1322.140625 77.449219 1322.101562 77.335938 1322.054688 77.242188 C 1322.0625 77.128906 1322.046875 77.015625 1322.019531 76.894531 C 1321.972656 76.671875 1321.925781 76.445312 1321.867188 76.222656 C 1321.699219 75.5 1320.992188 75.054688 1320.269531 75.21875 C 1319.554688 75.386719 1319.105469 76.101562 1319.265625 76.816406 L 1319.410156 77.457031 C 1319.433594 77.570312 1319.476562 77.675781 1319.523438 77.769531 C 1319.515625 77.882812 1319.53125 77.996094 1319.554688 78.109375 L 1319.691406 78.757812 C 1319.820312 79.394531 1320.375 79.828125 1321 79.828125 C 1321.082031 79.835938 1321.167969 79.828125 1321.257812 79.8125 Z M 1318.761719 69.972656 C 1319.457031 69.722656 1319.820312 68.960938 1319.570312 68.269531 C 1318.632812 65.621094 1317.53125 63.058594 1316.292969 60.648438 C 1315.957031 59.988281 1315.152344 59.730469 1314.496094 60.070312 C 1313.835938 60.40625 1313.578125 61.210938 1313.917969 61.867188 C 1315.097656 64.171875 1316.15625 66.625 1317.050781 69.160156 C 1317.242188 69.707031 1317.757812 70.054688 1318.308594 70.054688 C 1318.464844 70.054688 1318.617188 70.027344 1318.761719 69.972656 Z M 1311.667969 55.417969 C 1312.269531 54.992188 1312.414062 54.15625 1311.980469 53.554688 C 1311.84375 53.371094 1311.714844 53.179688 1311.570312 52.992188 C 1311.5 52.898438 1311.417969 52.816406 1311.332031 52.746094 C 1311.289062 52.640625 1311.234375 52.535156 1311.164062 52.4375 C 1311.027344 52.253906 1310.882812 52.070312 1310.746094 51.886719 C 1310.292969 51.296875 1309.460938 51.1875 1308.875 51.636719 C 1308.285156 52.085938 1308.175781 52.921875 1308.625 53.507812 C 1308.761719 53.683594 1308.890625 53.859375 1309.027344 54.039062 C 1309.097656 54.125 1309.171875 54.207031 1309.257812 54.277344 C 1309.296875 54.382812 1309.355469 54.480469 1309.417969 54.574219 C 1309.546875 54.753906 1309.675781 54.929688 1309.804688 55.113281 C 1310.0625 55.484375 1310.480469 55.675781 1310.898438 55.675781 C 1311.164062 55.667969 1311.433594 55.585938 1311.667969 55.417969 Z M 1305.273438 47.539062 C 1305.796875 47.019531 1305.796875 46.175781 1305.273438 45.652344 C 1303.308594 43.691406 1301.203125 41.863281 1299.019531 40.199219 C 1298.433594 39.75 1297.597656 39.871094 1297.148438 40.457031 C 1296.695312 41.042969 1296.816406 41.878906 1297.402344 42.328125 C 1299.492188 43.917969 1301.507812 45.675781 1303.394531 47.546875 C 1303.652344 47.804688 1303.996094 47.933594 1304.335938 47.933594 C 1304.671875 47.933594 1305.019531 47.804688 1305.273438 47.539062 Z M 1292.59375 37.4375 C 1292.953125 36.792969 1292.738281 35.980469 1292.09375 35.613281 L 1291.492188 35.273438 C 1291.386719 35.21875 1291.277344 35.171875 1291.164062 35.148438 C 1291.082031 35.066406 1290.988281 35.003906 1290.882812 34.945312 C 1290.679688 34.832031 1290.472656 34.730469 1290.273438 34.617188 C 1289.621094 34.269531 1288.808594 34.519531 1288.464844 35.171875 C 1288.117188 35.820312 1288.367188 36.632812 1289.019531 36.976562 C 1289.210938 37.082031 1289.414062 37.1875 1289.605469 37.292969 C 1289.710938 37.347656 1289.8125 37.386719 1289.917969 37.410156 C 1290 37.484375 1290.085938 37.554688 1290.183594 37.613281 L 1290.761719 37.941406 C 1290.96875 38.0625 1291.195312 38.117188 1291.421875 38.117188 C 1291.894531 38.109375 1292.34375 37.871094 1292.59375 37.4375 Z M 1283.484375 32.921875 C 1283.75 32.230469 1283.40625 31.460938 1282.714844 31.195312 C 1280.214844 30.238281 1277.566406 29.386719 1274.84375 28.65625 C 1274.128906 28.464844 1273.398438 28.890625 1273.203125 29.605469 C 1273.011719 30.320312 1273.4375 31.050781 1274.152344 31.242188 C 1276.785156 31.949219 1279.347656 32.769531 1281.757812 33.691406 C 1281.917969 33.75 1282.078125 33.78125 1282.230469 33.78125 C 1282.777344 33.78125 1283.285156 33.460938 1283.484375 32.921875 Z M 1267.878906 28.449219 C 1268.007812 27.726562 1267.527344 27.027344 1266.792969 26.898438 L 1266.121094 26.777344 C 1266 26.761719 1265.886719 26.753906 1265.773438 26.761719 C 1265.671875 26.714844 1265.558594 26.679688 1265.445312 26.664062 L 1264.769531 26.5625 C 1264.046875 26.449219 1263.355469 26.945312 1263.246094 27.667969 C 1263.132812 28.398438 1263.628906 29.082031 1264.351562 29.195312 L 1265.019531 29.300781 C 1265.132812 29.316406 1265.246094 29.324219 1265.355469 29.308594 C 1265.460938 29.355469 1265.566406 29.386719 1265.679688 29.402344 L 1266.328125 29.515625 C 1266.410156 29.53125 1266.480469 29.539062 1266.5625 29.539062 C 1267.195312 29.546875 1267.757812 29.089844 1267.878906 28.449219 Z M 1197.539062 28.671875 C 1199.472656 28.671875 1201.480469 28.648438 1203.671875 28.609375 C 1204.414062 28.59375 1205 27.984375 1204.984375 27.242188 C 1204.964844 26.503906 1204.363281 25.925781 1203.617188 25.933594 C 1200.675781 25.992188 1198.097656 26.015625 1195.519531 25.992188 C 1195.519531 25.992188 1195.511719 25.992188 1195.511719 25.992188 C 1194.78125 25.992188 1194.1875 26.578125 1194.179688 27.316406 C 1194.171875 28.054688 1194.765625 28.65625 1195.503906 28.664062 C 1196.179688 28.671875 1196.855469 28.671875 1197.527344 28.671875 C 1197.519531 28.671875 1197.527344 28.671875 1197.539062 28.671875 Z M 1188.710938 27.164062 C 1188.75 26.425781 1188.1875 25.796875 1187.449219 25.757812 L 1186.773438 25.71875 C 1186.664062 25.710938 1186.542969 25.71875 1186.4375 25.742188 C 1186.332031 25.710938 1186.21875 25.683594 1186.109375 25.675781 L 1185.433594 25.636719 C 1184.695312 25.589844 1184.058594 26.152344 1184.011719 26.882812 C 1183.964844 27.621094 1184.527344 28.253906 1185.257812 28.304688 L 1185.929688 28.34375 C 1186.050781 28.351562 1186.164062 28.34375 1186.277344 28.320312 C 1186.382812 28.351562 1186.492188 28.375 1186.613281 28.382812 L 1187.296875 28.425781 C 1187.320312 28.425781 1187.34375 28.425781 1187.367188 28.425781 C 1188.074219 28.425781 1188.671875 27.871094 1188.710938 27.164062 Z M 1211.824219 28.367188 L 1212.5 28.34375 C 1212.613281 28.335938 1212.726562 28.320312 1212.835938 28.289062 C 1212.949219 28.3125 1213.0625 28.320312 1213.183594 28.320312 L 1213.867188 28.296875 C 1214.605469 28.273438 1215.175781 27.644531 1215.152344 26.914062 C 1215.125 26.175781 1214.492188 25.613281 1213.769531 25.628906 L 1213.085938 25.652344 C 1212.972656 25.660156 1212.863281 25.675781 1212.75 25.710938 C 1212.636719 25.683594 1212.523438 25.667969 1212.402344 25.675781 L 1211.730469 25.703125 C 1210.992188 25.726562 1210.421875 26.351562 1210.445312 27.082031 C 1210.46875 27.804688 1211.0625 28.367188 1211.777344 28.367188 C 1211.792969 28.375 1211.808594 28.375 1211.824219 28.367188 Z M 1257.816406 27.019531 C 1257.878906 26.28125 1257.339844 25.636719 1256.601562 25.566406 C 1254.015625 25.332031 1251.261719 25.164062 1248.417969 25.050781 C 1247.679688 24.988281 1247.0625 25.597656 1247.027344 26.335938 C 1246.996094 27.074219 1247.574219 27.695312 1248.3125 27.726562 C 1251.109375 27.839844 1253.824219 28.007812 1256.363281 28.230469 C 1256.402344 28.230469 1256.441406 28.238281 1256.480469 28.238281 C 1257.171875 28.238281 1257.757812 27.71875 1257.816406 27.019531 Z M 1221.984375 27.984375 C 1224.683594 27.878906 1227.398438 27.78125 1230.105469 27.710938 C 1230.84375 27.695312 1231.421875 27.074219 1231.40625 26.335938 C 1231.390625 25.597656 1230.789062 25.011719 1230.035156 25.035156 C 1227.320312 25.105469 1224.597656 25.203125 1221.890625 25.308594 C 1221.152344 25.332031 1220.582031 25.957031 1220.605469 26.691406 C 1220.628906 27.414062 1221.222656 27.972656 1221.9375 27.972656 C 1221.953125 27.984375 1221.96875 27.984375 1221.984375 27.984375 Z M 1238.210938 27.574219 L 1238.882812 27.574219 C 1239.003906 27.574219 1239.117188 27.558594 1239.222656 27.53125 C 1239.328125 27.558594 1239.4375 27.574219 1239.558594 27.574219 L 1240.234375 27.574219 C 1240.234375 27.574219 1240.234375 27.574219 1240.242188 27.574219 C 1240.980469 27.574219 1241.574219 26.980469 1241.574219 26.238281 C 1241.574219 25.5 1240.980469 24.898438 1240.242188 24.898438 L 1239.558594 24.898438 C 1239.4375 24.898438 1239.328125 24.914062 1239.222656 24.9375 C 1239.117188 24.914062 1239.011719 24.921875 1238.882812 24.898438 L 1238.203125 24.898438 C 1237.464844 24.90625 1236.867188 25.5 1236.875 26.238281 C 1236.875 26.980469 1237.472656 27.574219 1238.210938 27.574219 Z M 1178.574219 26.328125 C 1178.679688 25.597656 1178.164062 24.921875 1177.433594 24.816406 C 1174.671875 24.433594 1172.019531 23.941406 1169.5625 23.355469 C 1168.847656 23.1875 1168.125 23.628906 1167.957031 24.34375 C 1167.789062 25.058594 1168.230469 25.78125 1168.945312 25.949219 C 1171.480469 26.5625 1174.214844 27.066406 1177.0625 27.460938 C 1177.128906 27.46875 1177.191406 27.476562 1177.25 27.476562 C 1177.90625 27.484375 1178.476562 27.003906 1178.574219 26.328125 Z M 1162.726562 22.769531 C 1162.992188 22.078125 1162.640625 21.308594 1161.949219 21.050781 C 1161.738281 20.972656 1161.539062 20.890625 1161.332031 20.808594 C 1161.226562 20.769531 1161.113281 20.738281 1161 20.730469 C 1160.914062 20.664062 1160.816406 20.609375 1160.710938 20.570312 C 1160.511719 20.488281 1160.300781 20.402344 1160.101562 20.3125 C 1159.417969 20.023438 1158.640625 20.34375 1158.351562 21.027344 C 1158.0625 21.710938 1158.382812 22.488281 1159.066406 22.777344 C 1159.28125 22.867188 1159.492188 22.953125 1159.707031 23.042969 C 1159.820312 23.089844 1159.933594 23.117188 1160.046875 23.132812 C 1160.132812 23.195312 1160.238281 23.261719 1160.351562 23.300781 C 1160.566406 23.386719 1160.785156 23.46875 1161 23.550781 C 1161.152344 23.605469 1161.3125 23.636719 1161.476562 23.636719 C 1162.019531 23.628906 1162.527344 23.300781 1162.726562 22.769531 Z M 1153.507812 18.503906 C 1153.902344 17.878906 1153.714844 17.058594 1153.089844 16.664062 C 1150.855469 15.253906 1148.761719 13.636719 1146.839844 11.871094 C 1146.304688 11.371094 1145.453125 11.40625 1144.953125 11.941406 C 1144.457031 12.480469 1144.488281 13.332031 1145.027344 13.832031 C 1147.058594 15.710938 1149.289062 17.421875 1151.660156 18.921875 C 1151.886719 19.066406 1152.125 19.132812 1152.375 19.132812 C 1152.824219 19.125 1153.25 18.90625 1153.507812 18.503906 Z M 1141.308594 7.886719 C 1141.894531 7.445312 1142.015625 6.601562 1141.570312 6.015625 C 1141.445312 5.839844 1141.308594 5.664062 1141.179688 5.484375 C 1141.113281 5.398438 1141.035156 5.308594 1140.953125 5.246094 C 1140.914062 5.140625 1140.867188 5.042969 1140.792969 4.957031 C 1140.664062 4.777344 1140.535156 4.59375 1140.414062 4.410156 C 1139.996094 3.808594 1139.164062 3.65625 1138.558594 4.070312 C 1137.949219 4.488281 1137.804688 5.324219 1138.222656 5.925781 C 1138.351562 6.121094 1138.488281 6.304688 1138.625 6.496094 C 1138.695312 6.59375 1138.777344 6.683594 1138.867188 6.753906 C 1138.90625 6.859375 1138.960938 6.964844 1139.035156 7.058594 C 1139.171875 7.246094 1139.308594 7.4375 1139.453125 7.621094 C 1139.71875 7.96875 1140.117188 8.152344 1140.519531 8.152344 C 1140.777344 8.152344 1141.066406 8.0625 1141.308594 7.886719 Z M 1135.828125 -0.667969 C 1136.496094 -0.980469 1136.785156 -1.773438 1136.472656 -2.441406 C 1135.371094 -4.777344 1134.425781 -7.269531 1133.652344 -9.855469 C 1133.445312 -10.5625 1132.695312 -10.964844 1131.992188 -10.753906 C 1131.285156 -10.546875 1130.882812 -9.796875 1131.089844 -9.09375 C 1131.902344 -6.386719 1132.898438 -3.765625 1134.054688 -1.308594 C 1134.28125 -0.828125 1134.761719 -0.546875 1135.265625 -0.546875 C 1135.453125 -0.546875 1135.644531 -0.585938 1135.828125 -0.667969 Z M 1130.785156 -16.085938 C 1131.515625 -16.207031 1132.007812 -16.890625 1131.894531 -17.621094 L 1131.789062 -18.289062 C 1131.773438 -18.402344 1131.742188 -18.503906 1131.703125 -18.609375 C 1131.71875 -18.722656 1131.710938 -18.835938 1131.691406 -18.945312 L 1131.605469 -19.605469 C 1131.507812 -20.335938 1130.839844 -20.84375 1130.101562 -20.753906 C 1129.371094 -20.65625 1128.859375 -19.992188 1128.953125 -19.253906 L 1129.050781 -18.570312 C 1129.066406 -18.449219 1129.097656 -18.335938 1129.148438 -18.230469 C 1129.132812 -18.121094 1129.140625 -18 1129.15625 -17.878906 L 1129.257812 -17.203125 C 1129.363281 -16.546875 1129.933594 -16.078125 1130.578125 -16.078125 C 1130.648438 -16.070312 1130.714844 -16.078125 1130.785156 -16.085938 Z M 1129.703125 -26.199219 C 1130.441406 -26.214844 1131.027344 -26.824219 1131.003906 -27.566406 C 1130.988281 -28.230469 1130.976562 -28.890625 1130.976562 -29.558594 C 1130.976562 -31.515625 1131.050781 -33.539062 1131.179688 -35.582031 C 1131.226562 -36.320312 1130.671875 -36.953125 1129.933594 -37.003906 C 1129.210938 -37.074219 1128.5625 -36.496094 1128.511719 -35.757812 C 1128.375 -33.660156 1128.304688 -31.574219 1128.304688 -29.558594 C 1128.304688 -28.875 1128.3125 -28.191406 1128.328125 -27.5 C 1128.34375 -26.777344 1128.9375 -26.199219 1129.660156 -26.199219 C 1129.675781 -26.199219 1129.691406 -26.199219 1129.703125 -26.199219 Z M 1132.039062 -43.5625 L 1132.136719 -44.222656 C 1132.152344 -44.335938 1132.160156 -44.457031 1132.144531 -44.566406 C 1132.183594 -44.671875 1132.222656 -44.777344 1132.238281 -44.898438 L 1132.34375 -45.554688 C 1132.464844 -46.285156 1131.972656 -46.96875 1131.242188 -47.089844 C 1130.503906 -47.210938 1129.828125 -46.710938 1129.710938 -45.988281 L 1129.597656 -45.308594 C 1129.582031 -45.1875 1129.574219 -45.074219 1129.589844 -44.960938 C 1129.539062 -44.855469 1129.507812 -44.753906 1129.492188 -44.632812 L 1129.386719 -43.949219 C 1129.285156 -43.21875 1129.789062 -42.542969 1130.519531 -42.429688 C 1130.585938 -42.421875 1130.648438 -42.414062 1130.714844 -42.414062 C 1131.371094 -42.421875 1131.941406 -42.898438 1132.039062 -43.5625 Z M 1133.925781 -53.433594 C 1134.542969 -56.0625 1135.25 -58.671875 1136.03125 -61.203125 C 1136.246094 -61.910156 1135.855469 -62.65625 1135.148438 -62.871094 C 1134.441406 -63.089844 1133.691406 -62.695312 1133.476562 -61.988281 C 1132.679688 -59.402344 1131.957031 -56.734375 1131.324219 -54.046875 C 1131.15625 -53.332031 1131.597656 -52.609375 1132.320312 -52.4375 C 1132.425781 -52.414062 1132.527344 -52.40625 1132.625 -52.40625 C 1133.234375 -52.40625 1133.78125 -52.824219 1133.925781 -53.433594 Z M 1136.703125 -63.304688 C 1137.308594 -65.128906 1137.789062 -66.414062 1138.023438 -67.015625 C 1138.289062 -67.707031 1137.949219 -68.476562 1137.257812 -68.742188 C 1136.570312 -69.007812 1135.796875 -68.671875 1135.53125 -67.980469 C 1135.292969 -67.355469 1134.785156 -66.019531 1134.167969 -64.140625 C 1133.933594 -63.441406 1134.320312 -62.6875 1135.019531 -62.453125 C 1135.15625 -62.40625 1135.300781 -62.390625 1135.4375 -62.390625 C 1136 -62.390625 1136.519531 -62.742188 1136.703125 -63.304688 Z M 1136.703125 -63.304688 " fill-opacity="1" fill-rule="nonzero"/><path fill="#fd7865" d="M -128.941406 182.84375 C -142.648438 138.449219 -91.875 124.632812 -87.203125 103.835938 C -78.007812 62.902344 -98.671875 42.109375 -65.789062 8.527344 C -37.933594 -19.914062 -3.890625 -3.34375 29.890625 -7.871094 C 70.769531 -13.351562 113.082031 -56.882812 152.804688 -20.210938 C 158.027344 -15.398438 161.941406 -9.277344 164.90625 -2.867188 C 175.988281 21.0625 175.28125 47.886719 190.789062 70.3125 C 209.164062 96.894531 238.050781 116.832031 240.644531 151.722656 C 241.136719 158.257812 240.390625 164.746094 238.625 171.042969 C 237.105469 176.46875 235 181.535156 231.859375 186.226562 C 209.925781 218.988281 169.03125 199.933594 137.882812 207.355469 C 118.472656 211.976562 103.972656 226.980469 88.65625 238.667969 C 67.972656 254.460938 43.4375 267.082031 16.753906 266.417969 C -10.902344 265.726562 -38.519531 253.4375 -59.738281 236.128906 C -68.28125 229.15625 -74.875 217.253906 -84.679688 212.125 C -102.792969 202.644531 -124.980469 195.695312 -128.941406 182.84375 Z M -128.941406 182.84375 " fill-opacity="1" fill-rule="evenodd"/><path fill="#cfb6a9" d="M -126.386719 134.339844 C -127.59375 118.820312 -122.328125 108.386719 -114.527344 100.613281 C -99.160156 85.289062 -74.449219 79.789062 -68.421875 67.074219 C -57.339844 43.691406 -58.992188 25.277344 -52.671875 8.601562 C -48.8125 -1.570312 -41.898438 -11.0625 -27.042969 -20.671875 C -14.117188 -29.035156 -1.785156 -30.46875 10.453125 -28.972656 C 29.617188 -26.632812 48.558594 -17.269531 69.097656 -15.449219 C 98.078125 -12.882812 131.914062 -28.691406 160.085938 -22.507812 C 171.523438 -19.996094 181.996094 -13.765625 190.789062 -1.023438 C 192.753906 1.816406 194.328125 4.90625 195.601562 8.117188 C 196.886719 11.355469 197.851562 14.71875 198.582031 18.101562 C 202.472656 36.1875 200.371094 54.382812 202.328125 72.363281 C 203.167969 80.089844 204.742188 87.777344 207.8125 95.394531 C 215.074219 113.390625 226.558594 129.882812 233.460938 147.6875 C 237.96875 159.320312 240.5 171.523438 238.492188 185.109375 C 238.019531 188.273438 237.257812 191.359375 236.242188 194.359375 C 235.214844 197.359375 233.925781 200.277344 232.40625 203.09375 C 231.097656 205.523438 229.667969 207.832031 228.0625 210.007812 C 226.476562 212.175781 224.707031 214.207031 222.710938 216.101562 C 214.464844 223.929688 205.613281 227.070312 196.421875 227.625 C 174.042969 228.976562 149.742188 215.4375 127.253906 215.707031 C 119.109375 215.808594 111.371094 217.730469 103.882812 220.539062 C 92.851562 224.671875 82.355469 230.726562 71.832031 235.558594 C 60.117188 240.941406 47.640625 245.347656 34.886719 247.605469 C 22.183594 249.855469 9.207031 249.964844 -3.566406 246.746094 C -16.839844 243.410156 -29.46875 237.269531 -40.867188 229.308594 C -52.285156 221.328125 -62.46875 211.519531 -70.84375 200.84375 C -75.535156 194.855469 -78.792969 186.773438 -83.152344 180.003906 C -85.15625 176.882812 -87.394531 174.039062 -90.078125 171.761719 C -99.96875 163.363281 -111.699219 155.613281 -119.175781 147.636719 C -123.226562 143.3125 -126.023438 138.949219 -126.386719 134.339844 Z M -128.921875 134.539062 C -128.523438 139.65625 -125.535156 144.570312 -121.027344 149.378906 C -113.492188 157.414062 -101.691406 165.238281 -91.722656 173.703125 C -89.230469 175.820312 -87.15625 178.476562 -85.289062 181.382812 C -80.890625 188.210938 -77.582031 196.367188 -72.847656 202.410156 C -64.320312 213.28125 -53.949219 223.269531 -42.324219 231.394531 C -30.667969 239.53125 -17.757812 245.800781 -4.1875 249.214844 C 8.941406 252.519531 22.28125 252.417969 35.332031 250.109375 C 48.296875 247.816406 60.980469 243.339844 72.894531 237.871094 C 83.359375 233.066406 93.800781 227.03125 104.773438 222.917969 C 111.996094 220.214844 119.441406 218.347656 127.285156 218.253906 C 149.8125 217.976562 174.15625 231.519531 196.582031 230.160156 C 206.328125 229.574219 215.71875 226.242188 224.464844 217.945312 C 226.5625 215.949219 228.433594 213.800781 230.113281 211.511719 C 231.789062 209.242188 233.277344 206.832031 234.644531 204.300781 C 236.234375 201.359375 237.574219 198.3125 238.644531 195.179688 C 239.71875 192.03125 240.511719 188.796875 241.003906 185.476562 C 243.089844 171.425781 240.492188 158.800781 235.828125 146.765625 C 228.921875 128.949219 217.433594 112.449219 210.171875 94.4375 C 207.191406 87.042969 205.664062 79.585938 204.851562 72.089844 C 202.894531 54.023438 204.980469 35.738281 201.070312 17.566406 C 200.3125 14.050781 199.300781 10.546875 197.964844 7.183594 C 196.625 3.789062 194.953125 0.535156 192.878906 -2.46875 C 183.65625 -15.84375 172.644531 -22.355469 160.632812 -24.992188 C 132.359375 -31.199219 98.402344 -15.40625 69.320312 -17.980469 C 45.175781 -20.117188 23.234375 -32.652344 0.5625 -32.011719 C -8.90625 -31.746094 -18.5 -29.226562 -28.425781 -22.804688 C -43.886719 -12.804688 -51.039062 -2.886719 -55.050781 7.707031 C -61.34375 24.320312 -59.671875 42.679688 -70.714844 65.988281 C -76.65625 78.511719 -101.183594 83.707031 -116.328125 98.808594 C -124.59375 107.046875 -130.199219 118.097656 -128.921875 134.539062 Z M -128.921875 134.539062 " fill-opacity="1" fill-rule="evenodd"/><g clip-path="url(#17e7f7d2aa)"><path fill="#cd5948" d="M -17.9375 -27.847656 C -17.246094 -27.316406 -16.800781 -26.789062 -16.019531 -26.355469 C -14.53125 -25.535156 -12.839844 -25.113281 -11.179688 -24.535156 C -2.375 -21.488281 7.105469 -18.28125 15.464844 -13.429688 C 22.207031 -9.523438 28.25 -4.703125 32.640625 1.476562 C 38.429688 9.046875 39.371094 20.253906 44.023438 28.503906 C 45.511719 31.125 47.285156 33.515625 49.570312 35.523438 C 52.121094 37.773438 55.113281 39.246094 58.390625 40.230469 C 63.59375 41.792969 69.597656 42.027344 75.53125 42.546875 C 80.453125 42.972656 85.324219 43.574219 89.363281 45.964844 C 93.128906 48.355469 95.96875 51.6875 98.464844 55.332031 C 100.910156 58.902344 102.871094 62.84375 104.992188 66.640625 C 106.546875 69.429688 108.195312 72.136719 109.894531 74.699219 C 114.132812 80.914062 118.726562 86.824219 123.117188 92.644531 C 129.613281 101.265625 135.648438 109.679688 138.640625 119.113281 C 141.527344 128.203125 141.40625 138.230469 136.039062 150.355469 C 133.363281 156.558594 128.949219 158.972656 123.644531 159.535156 C 116.179688 160.332031 107.425781 158.332031 98.796875 156.894531 C 88.195312 155.128906 77.777344 154.226562 69.378906 157.902344 C 62.164062 160.910156 56.023438 165.089844 50.496094 169.9375 C 45.308594 174.480469 40.625 179.589844 36.21875 184.988281 C 30.039062 192.550781 24.304688 200.582031 17.6875 207.738281 C 14.199219 211.519531 10.464844 215.03125 6.324219 218.203125 C 2.382812 221.21875 -1.796875 224.050781 -6.78125 226.164062 C -8.789062 226.839844 -9.863281 229.019531 -9.1875 231.027344 C -8.507812 233.027344 -6.328125 234.109375 -4.328125 233.433594 C 0.976562 232.09375 5.765625 230.214844 10.15625 227.742188 C 12.117188 226.636719 13.9375 225.351562 15.726562 224.042969 C 20.464844 220.578125 24.75 216.617188 28.726562 212.332031 C 34.410156 206.210938 39.492188 199.492188 44.746094 192.988281 C 52.847656 182.976562 61.246094 173.351562 73.65625 167.910156 C 80.3125 165.136719 88.503906 166.503906 96.8125 168.074219 C 106.503906 169.902344 116.335938 172.203125 124.761719 171.519531 C 134.378906 170.734375 142.4375 166.554688 147.535156 155.476562 C 154.519531 139.90625 154.511719 126.953125 150.8125 115.261719 C 147.925781 106.128906 142.675781 97.738281 136.542969 89.46875 C 131.257812 82.351562 125.289062 75.308594 119.914062 67.722656 C 115.480469 61.84375 111.628906 54.941406 106.816406 49.046875 C 103.195312 44.605469 99.121094 40.667969 94.015625 37.960938 C 88.785156 34.976562 82.566406 34.042969 76.242188 33.59375 C 70.921875 33.207031 65.523438 33.179688 60.855469 31.839844 C 58.78125 31.253906 56.863281 30.398438 55.238281 29 C 52.863281 26.953125 51.261719 24.292969 50.023438 21.351562 C 46.519531 13.082031 45.21875 3.117188 40.023438 -4.035156 C 34.589844 -10.972656 27.386719 -16.371094 19.3125 -20.503906 C 10.214844 -25.160156 0.152344 -28.601562 -9.496094 -30.617188 C -11.253906 -30.992188 -12.96875 -31.480469 -14.710938 -31.472656 C -15.605469 -31.472656 -16.253906 -31.226562 -17.125 -31.082031 C -18.019531 -31.308594 -18.921875 -30.757812 -19.148438 -29.871094 C -19.371094 -28.976562 -18.824219 -28.066406 -17.9375 -27.847656 Z M -16.554688 204.722656 L -16.605469 204.714844 C -17.265625 204.714844 -17.800781 205.25 -17.800781 205.910156 C -18.222656 207.707031 -16.90625 207.789062 -15.953125 207.796875 C -15.417969 207.804688 -14.417969 207.257812 -13.304688 206.292969 C -12.117188 205.257812 -10.878906 203.566406 -10.074219 202.804688 C -7.863281 200.550781 -5.628906 198.28125 -3.488281 195.925781 C -1.324219 193.542969 0.753906 191.078125 2.707031 188.554688 C 9.246094 180.109375 15.238281 171.015625 21.875 162.511719 C 26.183594 156.992188 30.769531 151.738281 35.972656 147.085938 C 39.714844 143.734375 43.476562 141.320312 47.257812 139.75 C 54.691406 136.667969 62 136.980469 68.742188 137.703125 C 72.15625 138.070312 75.441406 138.582031 78.558594 139.117188 C 84.550781 140.140625 89.988281 141.085938 94.570312 140.847656 C 97.84375 140.671875 100.75 139.898438 103.300781 138.507812 C 108.503906 135.660156 112.675781 129.945312 113.792969 118.234375 C 114.34375 112.503906 113.78125 106.589844 112.246094 100.914062 C 110.734375 95.304688 108.292969 89.9375 105.121094 85.230469 C 99.4375 76.824219 93.578125 71.910156 87.625 69.179688 C 82.199219 66.691406 76.734375 65.867188 71.289062 65.773438 C 67.816406 65.714844 64.390625 66.097656 60.945312 66.089844 C 54.390625 66.082031 47.878906 65.25 41.6875 60.226562 C 29.175781 50.027344 25.566406 39.335938 22.070312 29.839844 C 20.050781 24.351562 17.9375 19.300781 14.871094 14.640625 C 12.765625 11.445312 10.277344 8.386719 6.773438 5.6875 C 2.683594 2.527344 -2.691406 -0.34375 -10.042969 -2.222656 C -12.523438 -2.851562 -15.238281 -3.539062 -18.230469 -3.621094 C -19.425781 -3.65625 -20.546875 -3.476562 -21.816406 -3.347656 C -24.046875 -3.703125 -26.152344 -2.167969 -26.5 0.0625 C -26.851562 2.304688 -25.320312 4.402344 -23.078125 4.753906 C -21.988281 5.21875 -21.09375 5.785156 -20.042969 6.152344 C -17.523438 7.039062 -15.117188 7.566406 -12.929688 8.226562 C -8.570312 9.550781 -4.992188 10.882812 -2.015625 12.46875 C 1.699219 14.445312 4.585938 16.519531 6.667969 19.164062 C 10.960938 24.617188 12.628906 31.328125 15.320312 38.359375 C 18.90625 47.738281 23.777344 57.8125 35.617188 67.617188 C 43.617188 74.285156 52.007812 75.292969 60.539062 75.976562 C 63.847656 76.246094 67.140625 76.652344 70.464844 77.082031 C 74.394531 77.601562 78.257812 78.488281 82.121094 80.480469 C 86.339844 82.652344 90.496094 86.207031 94.570312 92.320312 C 96.96875 95.890625 98.796875 99.972656 99.945312 104.226562 C 101.082031 108.421875 101.546875 112.796875 101.148438 117.039062 C 100.617188 122.742188 99.691406 126.007812 97.171875 127.425781 C 95.164062 128.554688 92.617188 128.523438 89.691406 128.359375 C 84.777344 128.074219 79.109375 127.011719 72.996094 126.644531 C 64.390625 126.117188 55.128906 126.878906 45.804688 131.058594 C 40.753906 133.328125 35.597656 136.492188 30.621094 141.371094 C 26.628906 145.28125 23.019531 149.527344 19.644531 153.988281 C 12.011719 164.039062 5.570312 175.105469 -1.652344 185.328125 C -3.074219 187.328125 -4.578125 189.28125 -6.117188 191.214844 C -8.449219 194.144531 -10.863281 197.023438 -13.289062 199.84375 C -13.945312 200.648438 -15.027344 202.136719 -15.863281 203.460938 C -16.148438 203.925781 -16.34375 204.378906 -16.554688 204.722656 Z M 60.425781 101.371094 C 60.082031 101.695312 59.417969 102.289062 58.886719 102.617188 C 56.433594 104.144531 53.03125 105.46875 49.285156 106.65625 C 38.054688 110.210938 24.28125 112.78125 19.703125 115.414062 C 11.1875 120.210938 7.324219 126.804688 4.039062 133.6875 C 2.136719 137.671875 0.429688 141.742188 -2.40625 145.386719 C -3.382812 146.640625 -4.457031 147.882812 -5.8125 149.019531 C -7.839844 150.714844 -10.398438 152.136719 -13.605469 153.558594 C -15.464844 154.378906 -17.394531 155.363281 -19.703125 156.144531 C -22.003906 156.601562 -23.492188 158.835938 -23.035156 161.136719 C -22.574219 163.429688 -20.34375 164.917969 -18.042969 164.457031 C -15.132812 164.253906 -12.570312 163.925781 -10.214844 163.324219 C -5.496094 162.113281 -1.894531 160.007812 1.054688 157.8125 C 6.847656 153.503906 9.9375 148.019531 12.613281 142.394531 C 15.5625 136.191406 17.636719 129.5625 25.257812 125.171875 C 31.054688 121.917969 52.171875 119.113281 62.847656 113.835938 C 69.402344 110.585938 72.589844 105.925781 72.417969 101.324219 C 72.125 93.363281 68.183594 89.214844 62.382812 87.101562 C 56.179688 84.847656 46.566406 85.921875 37.210938 86.492188 C 33.640625 86.710938 30.125 86.839844 26.945312 86.402344 C 24.246094 86.035156 21.777344 85.394531 20.109375 83.578125 C 17.296875 80.539062 15.570312 76.976562 14.34375 73.171875 C 12.390625 67.113281 11.660156 60.488281 10.351562 54.101562 C 9.359375 49.28125 8.074219 44.597656 6.058594 40.28125 C 3.316406 34.5 -4.699219 28.464844 -10.824219 27 C -12.464844 26.617188 -13.960938 26.398438 -15.191406 26.636719 C -16.582031 26.910156 -17.757812 27.269531 -18.539062 28.125 C -18.980469 28.609375 -19.558594 28.96875 -19.71875 29.621094 C -19.824219 30.058594 -20.042969 30.351562 -19.972656 30.832031 C -19.953125 31.058594 -20.09375 31.230469 -19.980469 31.449219 C -19.613281 32.1875 -19.523438 31.871094 -19.085938 32.710938 C -19.035156 32.816406 -19.070312 32.945312 -19.058594 33.058594 C -19.058594 33.71875 -18.523438 34.253906 -17.863281 34.253906 C -17.199219 34.253906 -16.667969 33.71875 -16.667969 33.058594 C -16.148438 32.464844 -15.53125 32.050781 -15.214844 32.5625 C -15.171875 32.636719 -14.96875 32.644531 -15.035156 32.691406 C -15.164062 32.796875 -15.035156 33.335938 -15.050781 33.164062 C -15.066406 33.003906 -14.785156 33.390625 -14.589844 33.417969 C -13.050781 33.660156 -11.101562 34.652344 -9.125 35.988281 C -6.148438 38.003906 -3.238281 40.90625 -2.210938 43.742188 C -0.796875 47.558594 -0.164062 51.65625 0.4375 55.828125 C 1.429688 62.722656 2.136719 69.789062 4.007812 76.316406 C 5.539062 81.695312 7.929688 86.703125 11.734375 91.078125 C 15.035156 94.882812 19.726562 96.949219 25.207031 97.851562 C 33.851562 99.273438 44.84375 97.445312 53.308594 97.800781 C 56.789062 97.949219 59.953125 98.0625 60.425781 101.371094 Z M 60.425781 101.371094 " fill-opacity="1" fill-rule="evenodd"/></g><path fill="#bef674" d="M 204.253906 860.695312 C 193.855469 853.636719 194.484375 838.246094 188.523438 827.175781 C 181.269531 813.699219 164.734375 807.96875 149.453125 807.195312 C 134.171875 806.417969 118.816406 809.378906 103.589844 807.871094 C 91.355469 806.65625 79.417969 802.515625 69.058594 795.882812 C 64.992188 793.285156 60.988281 790.074219 59.289062 785.5625 C 55.789062 776.289062 63.535156 766.417969 72.136719 761.492188 C 80.742188 756.566406 90.925781 753.949219 97.867188 746.867188 C 112.125 732.320312 104.394531 705.90625 87.84375 694.035156 C 71.289062 682.160156 49.675781 680.769531 29.328125 679.804688 C 15.972656 679.167969 2.613281 678.53125 -10.742188 677.894531 C -19.082031 677.503906 -28.78125 676.332031 -33.089844 669.183594 C -35.570312 665.070312 -35.539062 659.984375 -35.4375 655.183594 C -34.941406 632.171875 -34.449219 609.167969 -33.957031 586.15625 C -33.878906 582.441406 -33.898438 578.410156 -36.171875 575.476562 C -39.257812 571.496094 -45.054688 571.210938 -50.089844 571.269531 C -56.21875 571.34375 -62.34375 571.417969 -68.472656 571.492188 L -68.472656 873.046875 L 247.324219 873.046875 C 240.449219 869.136719 232.863281 866.492188 225.015625 865.472656 C 217.902344 864.546875 210.199219 864.726562 204.253906 860.695312 Z M 204.253906 860.695312 " fill-opacity="1" fill-rule="nonzero"/><g clip-path="url(#d97146d599)"><path fill="#7ed957" d="M 290.449219 860.851562 L -48.9375 860.851562 L -48.9375 549.496094 L -25.683594 549.214844 C -21.457031 549.160156 -12.671875 549.054688 -7.808594 555.328125 C -4.355469 559.78125 -4.480469 565.410156 -4.558594 569.132812 L -6.039062 638.164062 C -6.140625 642.886719 -6.082031 646.71875 -4.402344 649.515625 C -1.421875 654.457031 6.179688 655.476562 13.957031 655.847656 L 54.027344 657.753906 C 73.128906 658.660156 96.90625 659.796875 115.183594 672.902344 C 125.996094 680.65625 133.425781 693.710938 134.578125 706.964844 C 135.46875 717.230469 132.367188 726.542969 125.855469 733.195312 C 120.613281 738.542969 114.054688 741.519531 107.714844 744.398438 C 104.652344 745.789062 101.757812 747.097656 99.054688 748.648438 C 92.078125 752.640625 85.960938 760.328125 88.367188 766.699219 C 89.652344 770.101562 93.21875 772.714844 96.175781 774.609375 C 105.878906 780.816406 117.074219 784.703125 128.535156 785.839844 C 136.433594 786.625 144.339844 786.144531 152.707031 785.644531 C 159.699219 785.21875 166.925781 784.785156 174.160156 785.148438 C 183.746094 785.636719 207.148438 788.8125 217.324219 807.71875 C 219.78125 812.277344 221.171875 817.269531 222.515625 822.097656 C 224.601562 829.585938 226.40625 836.050781 231.480469 839.492188 C 235.132812 841.972656 240.132812 842.449219 245.425781 842.957031 C 246.957031 843.105469 248.546875 843.257812 250.117188 843.460938 C 258.480469 844.546875 266.59375 847.296875 274.230469 851.636719 Z M -39.070312 850.992188 L 233.300781 850.992188 C 230.761719 850.265625 228.265625 849.226562 225.949219 847.648438 C 217.886719 842.175781 215.304688 832.914062 213.023438 824.738281 C 211.769531 820.238281 210.585938 815.980469 208.644531 812.386719 C 203.234375 802.332031 190.15625 795.832031 173.667969 794.992188 C 166.980469 794.652344 160.339844 795.054688 153.308594 795.480469 C 144.921875 795.988281 136.253906 796.511719 127.570312 795.648438 C 114.566406 794.355469 101.875 789.953125 90.867188 782.910156 C 86.621094 780.195312 81.453125 776.292969 79.140625 770.179688 C 76.976562 764.449219 77.765625 758.238281 81.421875 752.210938 C 84.324219 747.433594 88.84375 743.125 94.152344 740.089844 C 97.261719 738.308594 100.503906 736.839844 103.636719 735.414062 C 109.40625 732.796875 114.859375 730.320312 118.808594 726.285156 C 124.539062 720.445312 125.203125 713.011719 124.75 707.8125 C 123.855469 697.5 117.839844 686.945312 109.429688 680.914062 C 93.523438 669.503906 71.359375 668.449219 53.554688 667.601562 L 13.480469 665.691406 C 6.914062 665.382812 -6.742188 664.730469 -12.851562 654.601562 C -16.148438 649.140625 -16.007812 642.675781 -15.90625 637.953125 L -14.425781 568.921875 C -14.363281 565.832031 -14.402344 562.925781 -15.609375 561.367188 C -17.242188 559.261719 -21.359375 559.019531 -25.570312 559.070312 L -39.078125 559.234375 L -39.078125 850.992188 Z M -39.070312 850.992188 " fill-opacity="1" fill-rule="nonzero"/></g><g clip-path="url(#4aea060979)"><path fill="#004aad" d="M 1356.039062 760.132812 C 1352.535156 726.972656 1350.792969 694.347656 1352.878906 661.695312 C 1354.125 642.234375 1356.097656 622.738281 1359.222656 603.496094 C 1363.441406 577.523438 1378 557.945312 1400.214844 544.035156 C 1420.007812 531.644531 1441.816406 524.800781 1464.640625 520.65625 C 1479.65625 517.933594 1494.773438 517.207031 1509.96875 517.714844 C 1513.613281 517.832031 1517.28125 518.460938 1520.84375 519.277344 C 1523.402344 519.859375 1524.535156 521.949219 1523.960938 524.59375 C 1523.445312 526.980469 1521.644531 527.929688 1519.355469 527.917969 C 1517.980469 527.910156 1516.609375 527.660156 1515.234375 527.542969 C 1481.988281 524.746094 1450.273438 530.78125 1419.832031 544.125 C 1418.359375 544.769531 1416.941406 545.542969 1415.496094 546.242188 C 1385.910156 560.609375 1370.035156 584.292969 1366.132812 616.875 C 1361.910156 652.136719 1360.617188 687.464844 1362.359375 722.878906 C 1363.320312 742.363281 1365.707031 761.773438 1366.921875 781.253906 C 1367.5625 791.5625 1367.339844 801.949219 1367 812.285156 C 1366.765625 819.382812 1365.707031 826.457031 1364.902344 833.527344 C 1364.726562 835.085938 1364.371094 836.78125 1363.5625 838.078125 C 1361.773438 840.933594 1357.703125 840.738281 1356.308594 837.667969 C 1355.597656 836.101562 1355.386719 834.066406 1355.632812 832.34375 C 1358.644531 811.277344 1358.390625 790.171875 1356.664062 769.035156 C 1356.433594 766.28125 1356.316406 763.519531 1356.039062 760.132812 Z M 1356.039062 760.132812 " fill-opacity="1" fill-rule="nonzero"/></g><path fill="#38b6ff" d="M 1423.390625 573.578125 C 1436.484375 564.140625 1451.257812 560.671875 1466.253906 558.019531 C 1484.179688 554.84375 1502.296875 553.753906 1520.496094 554.011719 C 1526.625 554.09375 1529.03125 555.347656 1529.101562 558.566406 C 1529.175781 561.863281 1526.664062 563.3125 1520.707031 563.316406 C 1501.136719 563.332031 1481.746094 564.925781 1462.398438 568.21875 C 1424.984375 574.585938 1406.007812 599.121094 1396.617188 633.382812 C 1393.011719 646.535156 1392.019531 660.167969 1392.273438 673.726562 C 1392.773438 700.613281 1394.246094 727.480469 1394.671875 754.367188 C 1395.007812 775.742188 1394.386719 797.132812 1394.175781 818.519531 C 1394.148438 821.507812 1394.097656 824.5 1393.96875 827.484375 C 1393.890625 829.316406 1393.777344 831.171875 1393.445312 832.972656 C 1392.980469 835.511719 1391.476562 837.195312 1388.734375 837.066406 C 1385.996094 836.933594 1384.574219 835.101562 1384.421875 832.550781 C 1384.269531 830.039062 1384.605469 827.496094 1384.625 824.96875 C 1384.84375 800.359375 1385.910156 775.722656 1385.019531 751.152344 C 1383.992188 722.648438 1382.152344 694.171875 1383.085938 665.640625 C 1383.683594 647.40625 1386.046875 629.429688 1393.652344 612.542969 C 1400.480469 597.410156 1409.933594 584.277344 1423.390625 573.578125 Z M 1423.390625 573.578125 " fill-opacity="1" fill-rule="nonzero"/><path fill="#5ce1e6" d="M 1421.621094 678.457031 C 1421.625 709.230469 1421.476562 739.351562 1421.703125 769.472656 C 1421.84375 788.316406 1422.546875 807.15625 1422.996094 825.996094 C 1423.015625 826.914062 1422.988281 827.835938 1423.039062 828.753906 C 1423.199219 831.703125 1422.871094 834.441406 1419.316406 835.109375 C 1416.617188 835.617188 1414.164062 833.175781 1413.632812 829.433594 C 1413.375 827.625 1413.503906 825.761719 1413.484375 823.921875 C 1413.390625 813.574219 1413.363281 803.226562 1413.203125 792.875 C 1412.707031 760.691406 1412.027344 728.503906 1411.699219 696.316406 C 1411.546875 681.59375 1412.539062 666.902344 1415.871094 652.484375 C 1419.109375 638.457031 1424.703125 625.425781 1432.675781 613.429688 C 1439.933594 602.511719 1449.6875 594.929688 1462.253906 590.898438 C 1478.136719 585.808594 1494.484375 583.714844 1511.066406 583.054688 C 1513.097656 582.972656 1515.207031 583.203125 1517.191406 583.675781 C 1519.660156 584.261719 1521.253906 585.914062 1520.960938 588.660156 C 1520.65625 591.464844 1518.722656 592.414062 1516.140625 592.550781 C 1509.039062 592.914062 1501.847656 592.761719 1494.851562 593.839844 C 1484.894531 595.371094 1474.964844 597.398438 1465.230469 599.988281 C 1454.597656 602.820312 1446.5625 609.582031 1440.503906 618.753906 C 1430.832031 633.40625 1425.050781 649.472656 1422.847656 666.851562 C 1422.386719 670.496094 1422.03125 674.15625 1421.621094 678.457031 Z M 1421.621094 678.457031 " fill-opacity="1" fill-rule="nonzero"/><path fill="#5271ff" d="M 1446.476562 701.914062 C 1446.671875 722.785156 1446.929688 743 1447.046875 763.214844 C 1447.078125 768.722656 1446.535156 774.234375 1446.507812 779.742188 C 1446.425781 797.207031 1446.484375 814.675781 1446.445312 832.144531 C 1446.429688 837.796875 1445.191406 840.046875 1442.179688 840.292969 C 1438.832031 840.570312 1436.902344 837.871094 1436.957031 832.199219 C 1437.144531 812.4375 1437.679688 792.679688 1437.671875 772.921875 C 1437.667969 755.457031 1437.101562 737.992188 1436.816406 720.527344 C 1436.472656 699.757812 1438.78125 679.28125 1443.316406 659.011719 C 1446.789062 643.453125 1455.605469 631.992188 1469.328125 624.261719 C 1479.550781 618.496094 1490.023438 613.09375 1501.746094 611.164062 C 1506.667969 610.351562 1511.796875 610.632812 1516.824219 610.679688 C 1519.859375 610.707031 1522.257812 612.019531 1522.25 615.570312 C 1522.238281 618.390625 1520.09375 620.390625 1516.460938 619.976562 C 1499.789062 618.082031 1486.066406 625.734375 1472.46875 633.472656 C 1462.238281 639.292969 1455.164062 648.070312 1452.984375 659.8125 C 1450.433594 673.5625 1448.617188 687.445312 1446.476562 701.914062 Z M 1446.476562 701.914062 " fill-opacity="1" fill-rule="nonzero"/></svg>